# xmcd
#
# Track frame offsets:
#	150
#	15722
#	33220
#	51945
#	68427
#	87137
#	105560
#	122120
#	138942
#	152532
#	168687
#	184262
#	201760
#	220487
#	236970
#	255680
#	274102
#	290662
#	307485
#	321075
#
# Disc length: 4497
#
# Revision: 1
# Processed by: cddbd v1.5.1PL0 Copyright (c) Steve Scherf et al.
# Submitted via: audiograbber 1.82.02
# Normalized: r0:DSETVAR1
#
DISCID=2d118f14
DTITLE=Various Artist - THC0003
DYEAR=2000
DGENRE=Country
TTITLE0=Griggs, Andy (GV) - She's More
TTITLE1=Tennison, Chalee (GV) - Just Because She Lives There
TTITLE2=Adkins, Trace (GV) - Don't Lie
TTITLE3=Montgomery Gentry (GV) - Daddy Won't Sell The Farm
TTITLE4=Andrews, Jessica (GV) - Unbreakable Heart
TTITLE5=Brock, Chad (GV) - Country Boy Can Survive, A
TTITLE6=Day, Jennifer (GV) - Fun Of Your Life, The
TTITLE7=Kershaw, Sammy (GV) - Me And Maxine
TTITLE8=Lawrence, Tracy (GV) - Lessons Learned
TTITLE9=Holy, Steve (GV) - Don't Make Me beg
TTITLE10=Griggs, Andy - She's More
TTITLE11=Tennison, Chalee - Just Because She Lives There
TTITLE12=Adkins, Trace - Don't Lie
TTITLE13=Montgomery Gentry - Daddy Won't Sell The Farm
TTITLE14=Andrews, Jessica - Unbreakable Heart
TTITLE15=Brock, Chad - Country Boy Can Survive, A
TTITLE16=Day, Jennifer - Fun Of Your Life, The
TTITLE17=Kershaw, Sammy - Me And Maxine
TTITLE18=Lawrence, Tracy - Lessons Learned
TTITLE19=Holy, Steve - Don't Make Me beg
EXTD=
EXTT0=
EXTT1=
EXTT2=
EXTT3=
EXTT4=
EXTT5=
EXTT6=
EXTT7=
EXTT8=
EXTT9=
EXTT10=
EXTT11=
EXTT12=
EXTT13=
EXTT14=
EXTT15=
EXTT16=
EXTT17=
EXTT18=
EXTT19=
PLAYORDER=
